<svg xmlns="http://www.w3.org/2000/svg" viewBox="0 0 490.81 114.23"><defs><style>.cls-1{fill:#fff;}.cls-2{fill:#dee700;}.cls-3{fill:#a5ff00;}.cls-4{fill:#1a00e7;}.cls-5{fill:#1700d0;}.cls-6{fill:#3200ff;}.cls-7{fill:blue;}.cls-8{fill:#b900ac;}.cls-9{fill:#00d7e7;}.cls-10{fill:#fa0d26;}</style></defs><g id="Layer_2" data-name="Layer 2"><g id="Layer_1-2" data-name="Layer 1"><polygon class="cls-1" points="0 9.65 0 114.22 346.29 114.22 346.29 103.51 15.26 103.51 15.26 29.37 310.12 29.37 310.12 9.65 2.57 9.65 0 9.65"/><rect class="cls-2" x="133.36" y="46.38" width="17.66" height="52.27"/><polygon class="cls-3" points="338.68 98.19 338.68 45.92 356.12 45.92 365.17 72.41 365.17 45.92 383.56 45.92 383.56 98.19 365.17 98.19 356.34 82.16 356.12 98.19 338.68 98.19"/><polygon class="cls-4" points="45.92 46.12 28.26 98.39 45.92 98.39 45.92 90.53 54.75 90.53 54.75 98.39 73.44 98.39 53.99 46.12 45.92 46.12"/><polygon class="cls-4" points="50.33 63.7 47.48 72.26 54.22 72.13 50.33 63.7"/><polygon class="cls-5" points="250.53 45.98 232.87 97.93 250.53 97.93 250.53 90.11 259.35 90.11 259.35 97.93 278.04 97.93 258.6 45.98 250.53 45.98"/><polygon class="cls-5" points="254.94 63.45 252.08 71.95 258.83 71.83 254.94 63.45"/><polygon class="cls-6" points="79.69 98.39 79.69 46.12 97.12 46.12 106.17 72.61 106.17 46.12 124.56 46.12 124.56 98.39 106.17 98.39 97.34 82.36 97.12 98.39 79.69 98.39"/><polygon class="cls-1" points="163.14 98.39 163.14 46.12 181.06 46.12 189.36 64.24 198.19 46.12 215.84 46.12 215.84 98.39 198.09 98.39 198.19 72.26 189.36 90.33 181.06 72.04 181.06 98.39 163.14 98.39"/><polygon class="cls-7" points="437.17 46.38 490.81 46.38 490.81 64.5 472.75 64.5 472.75 98.65 455.26 98.65 455.26 64.5 437.17 64.5 437.17 46.38"/><polygon class="cls-8" points="396.44 46.38 396.44 92.9 396.44 99.12 426.58 99.12 426.58 85.76 411.03 85.76 411.03 80.19 418.01 80.19 418.01 66.75 411.03 66.75 411.03 60.54 426.58 60.54 426.58 46.57 396.44 46.38"/><path class="cls-9" d="M301.24,45.92s-15,7.71-16.2,17.54V81s4.29,15.36,16.2,16.89h16.43s8.39-1.92,8.39-11V75H309.34L309,81h8.67s1.43,6.82-8.67,5.84c0,0-7.76.13-7.76-5.76V63.46a7.25,7.25,0,0,1,7.76-6l.34,11.45h16.72V57.48S326,48,317.67,45.92Z"/><rect class="cls-5" x="191.24" width="18.2" height="38.12" rx="9.1"/><rect class="cls-1" x="214.98" width="18.2" height="38.12" rx="9.1"/><rect class="cls-3" x="238.72" width="18.2" height="38.12" rx="9.1"/><rect class="cls-10" x="262.47" width="18.2" height="38.12" rx="9.1"/><rect class="cls-8" x="286.21" width="18.2" height="38.12" rx="9.1"/></g></g></svg>